<?xml version="1.0" encoding="utf-8"?>
<!-- Generator: Adobe Illustrator 25.4.1, SVG Export Plug-In . SVG Version: 6.00 Build 0)  -->
<svg version="1.1" id="Layer_1" xmlns="http://www.w3.org/2000/svg" xmlns:xlink="http://www.w3.org/1999/xlink" x="0px" y="0px"
	 width="100.4px" height="36.5px" viewBox="0 0 100.4 36.5" style="enable-background:new 0 0 100.4 36.5;" xml:space="preserve">
<style type="text/css">
	.st0{fill:#1B2B68;}
	.st1{fill:#FFFFFF;}
</style>
<g>
	<rect class="st0" width="34.9" height="36.5"/>
</g>
<g>
	<path class="st1" d="M8.83,19.99c0.1,1.3,1.05,2.17,2.37,2.17c1.25,0,2.25-0.83,2.25-2.12c0-1.44-1.05-2.17-2.27-2.17
		c-0.75,0-1.46,0.29-1.91,0.76c-0.55-0.21-1.02-0.42-1.56-0.62l1.36-5.22h5.55v1.46h-4.49l-0.78,3.02c0.47-0.52,1.31-0.78,2.14-0.78
		c2.06,0,3.57,1.31,3.57,3.49c0,1.98-1.52,3.58-3.86,3.58c-2.24,0-3.75-1.46-3.89-3.11L8.83,19.99z"/>
	<path class="st1" d="M17.23,21.13c0.63,0,1.14,0.5,1.14,1.14s-0.5,1.12-1.14,1.12c-0.63,0-1.12-0.49-1.12-1.12
		S16.6,21.13,17.23,21.13z"/>
	<path class="st1" d="M20.44,14.23c0.68-1.02,1.74-1.69,3.23-1.69s2.55,0.67,3.23,1.69c0.7,1.04,0.94,2.37,0.94,3.81
		c0,1.44-0.24,2.77-0.94,3.81c-0.68,1.02-1.74,1.69-3.23,1.69s-2.55-0.67-3.23-1.69c-0.7-1.04-0.94-2.37-0.94-3.81
		C19.5,16.6,19.74,15.27,20.44,14.23z M22,21.45c0.41,0.42,0.92,0.68,1.67,0.68s1.27-0.26,1.67-0.68c0.63-0.67,0.92-1.8,0.92-3.41
		c0-1.61-0.29-2.74-0.92-3.41c-0.41-0.42-0.92-0.68-1.67-0.68s-1.27,0.26-1.67,0.68c-0.63,0.67-0.92,1.8-0.92,3.41
		C21.07,19.65,21.37,20.79,22,21.45z"/>
</g>
<g>
	<path class="st0" d="M41.72,1.76h6.31v1.79h-4.08v1.75h3.53v1.73h-3.53v3.3h-2.23V1.76z"/>
	<path class="st0" d="M48.53,6.01c0.04-0.82,0.41-1.34,0.97-1.67s1.26-0.43,1.98-0.43c1.48,0,2.9,0.32,2.9,2.09v2.72
		c0,0.53,0,1.1,0.24,1.59h-2.05c-0.08-0.19-0.08-0.38-0.12-0.59c-0.53,0.56-1.29,0.77-2.05,0.77c-1.2,0-2.12-0.6-2.12-1.88
		c0-2.01,2.21-1.87,3.62-2.16c0.35-0.08,0.54-0.19,0.54-0.58c0-0.47-0.56-0.65-0.98-0.65c-0.59,0-0.92,0.26-1.02,0.78H48.53z
		 M51.17,9.24c0.97,0,1.29-0.54,1.25-1.83c-0.29,0.18-0.82,0.2-1.26,0.34c-0.47,0.11-0.84,0.3-0.84,0.79
		C50.31,9.05,50.7,9.24,51.17,9.24z"/>
	<path class="st0" d="M59.42,6.37c0-0.53-0.48-0.9-1-0.9c-1.14,0-1.32,0.97-1.32,1.83c0,0.8,0.35,1.63,1.21,1.63
		c0.72,0,1.07-0.4,1.16-1.07h1.98C61.27,9.55,60,10.5,58.33,10.5c-1.87,0-3.26-1.27-3.26-3.19c0-1.98,1.26-3.39,3.26-3.39
		c1.56,0,2.91,0.83,3.07,2.46H59.42z"/>
	<path class="st0" d="M63.86,7.71c0.04,0.86,0.53,1.42,1.39,1.42c0.49,0,0.97-0.22,1.16-0.68h1.91c-0.38,1.44-1.7,2.06-3.09,2.06
		c-2.03,0-3.41-1.22-3.41-3.31c0-1.91,1.52-3.27,3.36-3.27c2.23,0,3.35,1.68,3.25,3.79H63.86z M66.39,6.57
		c-0.04-0.71-0.53-1.27-1.21-1.27c-0.72,0-1.19,0.5-1.32,1.27H66.39z"/>
	<path class="st0" d="M69.09,1.76h2.04v3.02h0.02c0.42-0.58,1.01-0.86,1.78-0.86c1.76,0,2.63,1.54,2.63,3.15
		c0,1.76-0.83,3.43-2.78,3.43c-0.73,0-1.31-0.3-1.71-0.9h-0.02v0.72h-1.94V1.76z M71.06,7.14c0,1.09,0.31,1.8,1.24,1.8
		c0.9,0,1.22-0.95,1.22-1.8c0-0.79-0.3-1.67-1.21-1.67C71.77,5.47,71.06,5.85,71.06,7.14z"/>
	<path class="st0" d="M79.27,3.92c1.93,0,3.29,1.43,3.29,3.3s-1.36,3.29-3.29,3.29c-1.93,0-3.27-1.42-3.27-3.29
		S77.34,3.92,79.27,3.92z M79.27,8.94c0.96,0,1.25-0.92,1.25-1.73c0-0.79-0.29-1.74-1.25-1.74c-0.95,0-1.24,0.95-1.24,1.74
		C78.03,8.02,78.32,8.94,79.27,8.94z"/>
	<path class="st0" d="M86.24,3.92c1.93,0,3.29,1.43,3.29,3.3s-1.36,3.29-3.29,3.29s-3.27-1.42-3.27-3.29S84.31,3.92,86.24,3.92z
		 M86.24,8.94c0.96,0,1.25-0.92,1.25-1.73c0-0.79-0.29-1.74-1.25-1.74C85.29,5.47,85,6.42,85,7.21C85,8.02,85.29,8.94,86.24,8.94z"
		/>
	<path class="st0" d="M90.24,1.76h2.04v4.41l1.86-2.08h2.36l-2.28,2.35l2.57,3.87h-2.46L92.8,7.81l-0.53,0.52v1.99h-2.04V1.76z"/>
</g>
<g>
	<path class="st0" d="M45.49,19.52h-2.83l-0.68,1.78h-0.95l2.54-6.38h1.02l2.54,6.38h-0.95L45.49,19.52z M42.98,18.7h2.2l-1.11-2.86
		L42.98,18.7z"/>
	<path class="st0" d="M49.39,21.3h-0.86l-1.76-4.33h0.95l1.23,3.34l1.24-3.34h0.91L49.39,21.3z"/>
	<path class="st0" d="M55.29,20.07c-0.24,0.77-0.94,1.37-1.94,1.37c-1.16,0-2.18-0.85-2.18-2.31c0-1.36,0.98-2.29,2.07-2.29
		c1.33,0,2.08,0.92,2.08,2.27c0,0.11-0.01,0.22-0.02,0.27h-3.26c0.02,0.77,0.58,1.31,1.31,1.31c0.7,0,1.05-0.39,1.21-0.87
		L55.29,20.07z M54.44,18.69c-0.02-0.62-0.42-1.11-1.19-1.11c-0.71,0-1.14,0.55-1.18,1.11H54.44z"/>
	<path class="st0" d="M58.53,17.82c-0.13-0.02-0.25-0.03-0.37-0.03c-0.71,0-1.19,0.38-1.19,1.33v2.17h-0.85v-4.33h0.83v0.76
		c0.31-0.67,0.85-0.83,1.3-0.83c0.12,0,0.23,0.02,0.28,0.03V17.82z"/>
	<path class="st0" d="M60.21,18.82l1.17-0.17c0.26-0.04,0.33-0.17,0.33-0.32c0-0.42-0.28-0.77-0.94-0.77
		c-0.59,0-0.93,0.37-0.98,0.87l-0.81-0.19c0.09-0.83,0.84-1.4,1.77-1.4c1.3,0,1.8,0.74,1.8,1.58v2.17c0,0.38,0.04,0.6,0.05,0.71
		h-0.83c-0.02-0.11-0.04-0.27-0.04-0.58c-0.19,0.31-0.62,0.72-1.4,0.72c-0.88,0-1.45-0.61-1.45-1.3
		C58.89,19.36,59.46,18.93,60.21,18.82z M61.71,19.44v-0.2l-1.32,0.2c-0.36,0.05-0.63,0.26-0.63,0.65c0,0.32,0.27,0.63,0.7,0.63
		C61.15,20.72,61.71,20.39,61.71,19.44z"/>
	<path class="st0" d="M64.1,21.34c0.06,0.6,0.52,1.06,1.18,1.06c0.91,0,1.32-0.47,1.32-1.4v-0.62c-0.21,0.4-0.68,0.71-1.32,0.71
		c-1.15,0-1.99-0.87-1.99-2.1c0-1.17,0.8-2.11,1.99-2.11c0.67,0,1.12,0.25,1.33,0.68v-0.6h0.84v4.01c0,1.1-0.54,2.17-2.17,2.17
		c-1.08,0-1.89-0.68-2-1.61L64.1,21.34z M66.64,18.99c0-0.84-0.5-1.39-1.23-1.39c-0.75,0-1.25,0.55-1.25,1.39
		c0,0.85,0.49,1.39,1.25,1.39C66.14,20.38,66.64,19.83,66.64,18.99z"/>
	<path class="st0" d="M72.3,20.07c-0.24,0.77-0.94,1.37-1.94,1.37c-1.16,0-2.18-0.85-2.18-2.31c0-1.36,0.98-2.29,2.07-2.29
		c1.33,0,2.08,0.92,2.08,2.27c0,0.11-0.01,0.22-0.02,0.27h-3.26c0.02,0.77,0.58,1.31,1.31,1.31c0.7,0,1.05-0.39,1.21-0.87
		L72.3,20.07z M71.45,18.69c-0.02-0.62-0.42-1.11-1.19-1.11c-0.71,0-1.14,0.55-1.18,1.11H71.45z"/>
	<path class="st0" d="M77.06,18.69H76.1v2.61h-0.89v-6.38h2.4c1.21,0,1.95,0.85,1.95,1.9c0,0.92-0.59,1.63-1.55,1.81l1.52,2.67
		h-1.03L77.06,18.69z M77.45,17.9c0.72,0,1.21-0.42,1.21-1.08c0-0.67-0.49-1.11-1.21-1.11H76.1v2.19H77.45z"/>
	<path class="st0" d="M81.42,18.82l1.17-0.17c0.26-0.04,0.33-0.17,0.33-0.32c0-0.42-0.28-0.77-0.94-0.77
		c-0.59,0-0.93,0.37-0.98,0.87l-0.81-0.19c0.09-0.83,0.84-1.4,1.77-1.4c1.3,0,1.8,0.74,1.8,1.58v2.17c0,0.38,0.04,0.6,0.05,0.71
		h-0.83c-0.02-0.11-0.04-0.27-0.04-0.58c-0.19,0.31-0.62,0.72-1.4,0.72c-0.88,0-1.45-0.61-1.45-1.3
		C80.11,19.36,80.67,18.93,81.42,18.82z M82.92,19.44v-0.2l-1.32,0.2c-0.36,0.05-0.63,0.26-0.63,0.65c0,0.32,0.27,0.63,0.7,0.63
		C82.37,20.72,82.92,20.39,82.92,19.44z"/>
	<path class="st0" d="M85.95,16.97h0.94v0.76h-0.94v2.25c0,0.4,0.16,0.59,0.6,0.59c0.11,0,0.26-0.02,0.33-0.04v0.72
		c-0.07,0.03-0.29,0.08-0.58,0.08c-0.74,0-1.21-0.45-1.21-1.23v-2.38h-0.83v-0.76h0.23c0.47,0,0.67-0.29,0.67-0.67v-0.7h0.77V16.97z
		"/>
	<path class="st0" d="M88.15,14.72c0.34,0,0.61,0.27,0.61,0.61c0,0.33-0.27,0.6-0.61,0.6c-0.33,0-0.6-0.27-0.6-0.6
		C87.55,14.99,87.82,14.72,88.15,14.72z M87.74,21.3v-4.33h0.84v4.33H87.74z"/>
	<path class="st0" d="M90.59,21.3h-0.85v-4.33h0.83v0.62c0.31-0.54,0.83-0.75,1.33-0.75c1.04,0,1.55,0.75,1.55,1.71v2.75h-0.85v-2.6
		c0-0.6-0.25-1.09-1.01-1.09c-0.67,0-1.01,0.53-1.01,1.19V21.3z"/>
	<path class="st0" d="M95.04,21.34c0.06,0.6,0.52,1.06,1.18,1.06c0.91,0,1.32-0.47,1.32-1.4v-0.62c-0.21,0.4-0.68,0.71-1.32,0.71
		c-1.15,0-1.99-0.87-1.99-2.1c0-1.17,0.8-2.11,1.99-2.11c0.67,0,1.12,0.25,1.33,0.68v-0.6h0.84v4.01c0,1.1-0.54,2.17-2.17,2.17
		c-1.08,0-1.89-0.68-2-1.61L95.04,21.34z M97.57,18.99c0-0.84-0.5-1.39-1.23-1.39c-0.75,0-1.25,0.55-1.25,1.39
		c0,0.85,0.49,1.39,1.25,1.39C97.07,20.38,97.57,19.83,97.57,18.99z"/>
</g>
<g>
	<path class="st0" d="M45.42,25.75l0.92,1.86l2.06,0.3c0.37,0.05,0.52,0.51,0.25,0.77l-1.49,1.45l0.35,2.05
		c0.06,0.37-0.33,0.65-0.65,0.47l-1.84-0.97l-1.84,0.97c-0.33,0.17-0.72-0.1-0.65-0.47l0.35-2.05l-1.49-1.45
		c-0.27-0.26-0.12-0.72,0.25-0.77l2.06-0.3l0.92-1.86C44.77,25.41,45.25,25.42,45.42,25.75z"/>
	<path class="st0" d="M53.31,25.75l0.92,1.86l2.06,0.3c0.37,0.05,0.52,0.51,0.25,0.77l-1.49,1.45l0.35,2.05
		c0.06,0.37-0.33,0.65-0.65,0.47l-1.84-0.97l-1.84,0.97c-0.33,0.17-0.72-0.1-0.65-0.47l0.35-2.05l-1.49-1.45
		c-0.27-0.26-0.12-0.72,0.25-0.77l2.06-0.3l0.92-1.86C52.67,25.41,53.15,25.42,53.31,25.75z"/>
	<path class="st0" d="M61.2,25.75l0.92,1.86l2.06,0.3c0.37,0.05,0.52,0.51,0.25,0.77l-1.49,1.45l0.35,2.05
		c0.06,0.37-0.33,0.65-0.65,0.47l-1.84-0.97l-1.84,0.97c-0.33,0.17-0.72-0.1-0.65-0.47l0.35-2.05l-1.49-1.45
		c-0.27-0.26-0.12-0.72,0.25-0.77l2.06-0.3l0.92-1.86C60.56,25.41,61.04,25.42,61.2,25.75z"/>
	<path class="st0" d="M69.1,25.75l0.92,1.86l2.06,0.3c0.37,0.05,0.52,0.51,0.25,0.77l-1.49,1.45l0.35,2.05
		c0.06,0.37-0.33,0.65-0.65,0.47l-1.84-0.97l-1.84,0.97c-0.33,0.17-0.72-0.1-0.65-0.47l0.35-2.05l-1.49-1.45
		c-0.27-0.26-0.12-0.72,0.25-0.77l2.06-0.3l0.92-1.86C68.46,25.41,68.93,25.42,69.1,25.75z"/>
	<path class="st0" d="M76.99,25.75l0.92,1.86l2.06,0.3c0.37,0.05,0.52,0.51,0.25,0.77l-1.49,1.45l0.35,2.05
		c0.06,0.37-0.33,0.65-0.65,0.47l-1.84-0.97l-1.84,0.97c-0.33,0.17-0.72-0.1-0.65-0.47l0.35-2.05l-1.49-1.45
		c-0.27-0.26-0.12-0.72,0.25-0.77l2.06-0.3l0.92-1.86C76.35,25.41,76.83,25.42,76.99,25.75z"/>
</g>
</svg>
