<?xml version="1.0" encoding="utf-8"?>
<!-- Generator: Adobe Illustrator 25.4.1, SVG Export Plug-In . SVG Version: 6.00 Build 0)  -->
<svg version="1.1" id="Layer_1" xmlns="http://www.w3.org/2000/svg" xmlns:xlink="http://www.w3.org/1999/xlink" x="0px" y="0px"
	 width="100.79px" height="36.5px" viewBox="0 0 100.79 36.5" style="enable-background:new 0 0 100.79 36.5;" xml:space="preserve"
	>
<style type="text/css">
	.st0{fill:#1B2B68;}
	.st1{fill:#FFFFFF;}
</style>
<rect class="st0" width="34.9" height="36.5"/>
<g>
	<path class="st1" d="M7.34,19.1l4.51-6.31h2.19v6.67h1.8v1.48h-1.8v2.37H12.5v-2.37H7.34V19.1z M12.5,14.31l-3.7,5.14h3.7V14.31z"
		/>
	<path class="st1" d="M17.85,21.13c0.63,0,1.14,0.5,1.14,1.14s-0.5,1.12-1.14,1.12c-0.63,0-1.12-0.49-1.12-1.12
		S17.22,21.13,17.85,21.13z"/>
	<path class="st1" d="M22.51,17.1l3.1-2.85h-5.03v-1.46h7.14v1.43l-3,2.77c1.54,0,3.24,1.04,3.24,3.2c0,1.77-1.36,3.37-3.81,3.37
		c-2.43,0-3.81-1.59-3.91-3.31l1.56-0.36c0.06,1.39,1.07,2.27,2.34,2.27c1.44,0,2.22-0.89,2.22-1.95c0-1.38-1.1-1.96-2.14-1.96
		c-0.32,0-0.65,0.07-0.92,0.16L22.51,17.1z"/>
</g>
<g>
	<path class="st0" d="M49.63,10.32h-1.44l-0.13-0.94c-0.58,0.83-1.62,1.12-2.39,1.12c-2.6,0-4.27-1.98-4.27-4.46
		c0-2.48,1.67-4.46,4.27-4.46c1.77,0,3.68,0.94,3.87,3.09h-2.23c-0.08-0.73-0.78-1.18-1.69-1.18c-1.44,0-1.99,1.26-1.99,2.54
		s0.55,2.54,1.99,2.54c1.1,0,1.83-0.52,1.97-1.29h-1.56V5.63h3.6V10.32z"/>
	<path class="st0" d="M53.59,3.92c1.93,0,3.29,1.43,3.29,3.3s-1.36,3.29-3.29,3.29c-1.93,0-3.27-1.42-3.27-3.29
		S51.66,3.92,53.59,3.92z M53.59,8.94c0.96,0,1.25-0.92,1.25-1.73c0-0.79-0.29-1.74-1.25-1.74c-0.95,0-1.24,0.95-1.24,1.74
		C52.35,8.02,52.64,8.94,53.59,8.94z"/>
	<path class="st0" d="M60.56,3.92c1.93,0,3.29,1.43,3.29,3.3s-1.36,3.29-3.29,3.29c-1.93,0-3.27-1.42-3.27-3.29
		S58.63,3.92,60.56,3.92z M60.56,8.94c0.96,0,1.25-0.92,1.25-1.73c0-0.79-0.29-1.74-1.25-1.74c-0.95,0-1.24,0.95-1.24,1.74
		C59.33,8.02,59.61,8.94,60.56,8.94z"/>
	<path class="st0" d="M70.58,9.56c0,1.01-0.19,2.94-3.11,2.94c-1.44,0-2.83-0.32-3.06-1.99h2.04c0.05,0.26,0.17,0.44,0.35,0.54
		c0.17,0.08,0.42,0.13,0.74,0.13c0.97,0,1.07-0.68,1.07-1.45V9.14h-0.02c-0.37,0.58-0.98,0.91-1.66,0.91
		c-1.88,0-2.73-1.34-2.73-3.09c0-1.66,0.97-3.05,2.73-3.05c0.75,0,1.31,0.32,1.67,0.96h0.02V4.1h1.96V9.56z M67.42,5.47
		c-0.9,0-1.19,0.79-1.19,1.56c0,0.73,0.35,1.46,1.18,1.46c0.86,0,1.24-0.68,1.24-1.45C68.65,6.24,68.32,5.47,67.42,5.47z"/>
	<path class="st0" d="M71.6,1.76h2.04v8.56H71.6V1.76z"/>
	<path class="st0" d="M76.46,7.71c0.04,0.86,0.53,1.42,1.39,1.42c0.49,0,0.97-0.22,1.16-0.68h1.91c-0.38,1.44-1.7,2.06-3.09,2.06
		c-2.03,0-3.41-1.22-3.41-3.31c0-1.91,1.52-3.27,3.36-3.27c2.23,0,3.35,1.68,3.25,3.79H76.46z M78.99,6.57
		c-0.04-0.71-0.53-1.27-1.21-1.27c-0.72,0-1.19,0.5-1.32,1.27H78.99z"/>
</g>
<g>
	<path class="st0" d="M45.49,19.52h-2.83l-0.68,1.78h-0.95l2.54-6.38h1.02l2.54,6.38h-0.95L45.49,19.52z M42.98,18.7h2.2l-1.11-2.86
		L42.98,18.7z"/>
	<path class="st0" d="M49.39,21.3h-0.86l-1.76-4.33h0.95l1.23,3.34l1.24-3.34h0.91L49.39,21.3z"/>
	<path class="st0" d="M55.29,20.07c-0.24,0.77-0.94,1.37-1.94,1.37c-1.16,0-2.18-0.85-2.18-2.31c0-1.36,0.98-2.29,2.07-2.29
		c1.33,0,2.08,0.92,2.08,2.27c0,0.11-0.01,0.22-0.02,0.27h-3.26c0.02,0.77,0.58,1.31,1.31,1.31c0.7,0,1.05-0.39,1.21-0.87
		L55.29,20.07z M54.44,18.69c-0.02-0.62-0.42-1.11-1.19-1.11c-0.71,0-1.14,0.55-1.18,1.11H54.44z"/>
	<path class="st0" d="M58.53,17.82c-0.13-0.02-0.25-0.03-0.37-0.03c-0.71,0-1.19,0.38-1.19,1.33v2.17h-0.85v-4.33h0.83v0.76
		c0.31-0.67,0.85-0.83,1.3-0.83c0.12,0,0.23,0.02,0.28,0.03V17.82z"/>
	<path class="st0" d="M60.21,18.82l1.17-0.17c0.26-0.04,0.33-0.17,0.33-0.32c0-0.42-0.28-0.77-0.94-0.77
		c-0.59,0-0.93,0.37-0.98,0.87l-0.81-0.19c0.09-0.83,0.84-1.4,1.77-1.4c1.3,0,1.8,0.74,1.8,1.58v2.17c0,0.38,0.04,0.6,0.05,0.71
		h-0.83c-0.02-0.11-0.04-0.27-0.04-0.58c-0.19,0.31-0.62,0.72-1.4,0.72c-0.88,0-1.45-0.61-1.45-1.3
		C58.89,19.36,59.46,18.93,60.21,18.82z M61.71,19.44v-0.2l-1.32,0.2c-0.36,0.05-0.63,0.26-0.63,0.65c0,0.32,0.27,0.63,0.7,0.63
		C61.15,20.72,61.71,20.39,61.71,19.44z"/>
	<path class="st0" d="M64.1,21.34c0.06,0.6,0.52,1.06,1.18,1.06c0.91,0,1.32-0.47,1.32-1.4v-0.62c-0.21,0.4-0.68,0.71-1.32,0.71
		c-1.15,0-1.99-0.87-1.99-2.1c0-1.17,0.8-2.11,1.99-2.11c0.67,0,1.12,0.25,1.33,0.68v-0.6h0.84v4.01c0,1.1-0.54,2.17-2.17,2.17
		c-1.08,0-1.89-0.68-2-1.61L64.1,21.34z M66.64,18.99c0-0.84-0.5-1.39-1.23-1.39c-0.75,0-1.25,0.55-1.25,1.39
		c0,0.85,0.49,1.39,1.25,1.39C66.14,20.38,66.64,19.83,66.64,18.99z"/>
	<path class="st0" d="M72.3,20.07c-0.24,0.77-0.94,1.37-1.94,1.37c-1.16,0-2.18-0.85-2.18-2.31c0-1.36,0.98-2.29,2.07-2.29
		c1.33,0,2.08,0.92,2.08,2.27c0,0.11-0.01,0.22-0.02,0.27h-3.26c0.02,0.77,0.58,1.31,1.31,1.31c0.7,0,1.05-0.39,1.21-0.87
		L72.3,20.07z M71.45,18.69c-0.02-0.62-0.42-1.11-1.19-1.11c-0.71,0-1.14,0.55-1.18,1.11H71.45z"/>
	<path class="st0" d="M77.06,18.69H76.1v2.61h-0.89v-6.38h2.4c1.21,0,1.95,0.85,1.95,1.9c0,0.92-0.59,1.63-1.55,1.81l1.52,2.67
		h-1.03L77.06,18.69z M77.45,17.9c0.72,0,1.21-0.42,1.21-1.08c0-0.67-0.49-1.11-1.21-1.11H76.1v2.19H77.45z"/>
	<path class="st0" d="M81.42,18.82l1.17-0.17c0.26-0.04,0.33-0.17,0.33-0.32c0-0.42-0.28-0.77-0.94-0.77
		c-0.59,0-0.93,0.37-0.98,0.87l-0.81-0.19c0.09-0.83,0.84-1.4,1.77-1.4c1.3,0,1.8,0.74,1.8,1.58v2.17c0,0.38,0.04,0.6,0.05,0.71
		h-0.83c-0.02-0.11-0.04-0.27-0.04-0.58c-0.19,0.31-0.62,0.72-1.4,0.72c-0.88,0-1.45-0.61-1.45-1.3
		C80.1,19.36,80.67,18.93,81.42,18.82z M82.92,19.44v-0.2l-1.32,0.2c-0.36,0.05-0.63,0.26-0.63,0.65c0,0.32,0.27,0.63,0.7,0.63
		C82.36,20.72,82.92,20.39,82.92,19.44z"/>
	<path class="st0" d="M85.95,16.97h0.94v0.76h-0.94v2.25c0,0.4,0.16,0.59,0.6,0.59c0.11,0,0.26-0.02,0.33-0.04v0.72
		c-0.07,0.03-0.29,0.08-0.58,0.08c-0.74,0-1.21-0.45-1.21-1.23v-2.38h-0.83v-0.76h0.23c0.47,0,0.67-0.29,0.67-0.67v-0.7h0.77V16.97z
		"/>
	<path class="st0" d="M88.15,14.72c0.34,0,0.61,0.27,0.61,0.61c0,0.33-0.27,0.6-0.61,0.6c-0.33,0-0.6-0.27-0.6-0.6
		C87.55,14.99,87.82,14.72,88.15,14.72z M87.74,21.3v-4.33h0.84v4.33H87.74z"/>
	<path class="st0" d="M90.59,21.3h-0.85v-4.33h0.83v0.62c0.31-0.54,0.83-0.75,1.33-0.75c1.04,0,1.55,0.75,1.55,1.71v2.75h-0.85v-2.6
		c0-0.6-0.25-1.09-1.01-1.09c-0.67,0-1.01,0.53-1.01,1.19V21.3z"/>
	<path class="st0" d="M95.04,21.34c0.06,0.6,0.52,1.06,1.18,1.06c0.91,0,1.32-0.47,1.32-1.4v-0.62c-0.21,0.4-0.68,0.71-1.32,0.71
		c-1.15,0-1.99-0.87-1.99-2.1c0-1.17,0.8-2.11,1.99-2.11c0.67,0,1.12,0.25,1.33,0.68v-0.6h0.84v4.01c0,1.1-0.54,2.17-2.17,2.17
		c-1.08,0-1.89-0.68-2-1.61L95.04,21.34z M97.57,18.99c0-0.84-0.5-1.39-1.23-1.39c-0.75,0-1.25,0.55-1.25,1.39
		c0,0.85,0.49,1.39,1.25,1.39C97.07,20.38,97.57,19.83,97.57,18.99z"/>
</g>
<g>
	<path class="st0" d="M45.42,25.75l0.92,1.86l2.06,0.3c0.37,0.05,0.52,0.51,0.25,0.77l-1.49,1.45l0.35,2.05
		c0.06,0.37-0.33,0.65-0.65,0.47l-1.84-0.97l-1.84,0.97c-0.33,0.17-0.72-0.1-0.65-0.47l0.35-2.05l-1.49-1.45
		c-0.27-0.26-0.12-0.72,0.25-0.77l2.06-0.3l0.92-1.86C44.77,25.41,45.25,25.42,45.42,25.75z"/>
	<path class="st0" d="M53.31,25.75l0.92,1.86l2.06,0.3c0.37,0.05,0.52,0.51,0.25,0.77l-1.49,1.45l0.35,2.05
		c0.06,0.37-0.33,0.65-0.65,0.47l-1.84-0.97l-1.84,0.97c-0.33,0.17-0.72-0.1-0.65-0.47l0.35-2.05l-1.49-1.45
		c-0.27-0.26-0.12-0.72,0.25-0.77l2.06-0.3l0.92-1.86C52.67,25.41,53.15,25.42,53.31,25.75z"/>
	<path class="st0" d="M61.2,25.75l0.92,1.86l2.06,0.3c0.37,0.05,0.52,0.51,0.25,0.77l-1.49,1.45l0.35,2.05
		c0.06,0.37-0.33,0.65-0.65,0.47l-1.84-0.97l-1.84,0.97c-0.33,0.17-0.72-0.1-0.65-0.47l0.35-2.05l-1.49-1.45
		c-0.27-0.26-0.12-0.72,0.25-0.77l2.06-0.3l0.92-1.86C60.56,25.41,61.04,25.42,61.2,25.75z"/>
	<path class="st0" d="M69.1,25.75l0.92,1.86l2.06,0.3c0.37,0.05,0.52,0.51,0.25,0.77l-1.49,1.45l0.35,2.05
		c0.06,0.37-0.33,0.65-0.65,0.47l-1.84-0.97l-1.84,0.97c-0.33,0.17-0.72-0.1-0.65-0.47l0.35-2.05l-1.49-1.45
		c-0.27-0.26-0.12-0.72,0.25-0.77l2.06-0.3l0.92-1.86C68.46,25.41,68.93,25.42,69.1,25.75z"/>
</g>
</svg>
