<?xml version="1.0" encoding="utf-8"?>
<!-- Generator: Adobe Illustrator 25.0.1, SVG Export Plug-In . SVG Version: 6.00 Build 0)  -->
<svg version="1.1" id="Layer_1" xmlns="http://www.w3.org/2000/svg" xmlns:xlink="http://www.w3.org/1999/xlink" x="0px" y="0px"
	 width="140px" height="110px" viewBox="0 0 140 110" style="enable-background:new 0 0 140 110;" xml:space="preserve">
<style type="text/css">
	.Drop_x0020_Shadow{fill:none;}
	.Outer_x0020_Glow_x0020_5_x0020_pt{fill:none;}
	.Blue_x0020_Neon{fill:none;stroke:#8AACDA;stroke-width:7;stroke-linecap:round;stroke-linejoin:round;}
	.Chrome_x0020_Highlight{fill:url(#SVGID_1_);stroke:#FFFFFF;stroke-width:0.3629;stroke-miterlimit:1;}
	.Jive_GS{fill:#FFDD00;}
	.Alyssa_GS{fill:#A6D0E4;}
	.st0{fill:#111111;}
</style>
<linearGradient id="SVGID_1_" gradientUnits="userSpaceOnUse" x1="-5.5" y1="-5" x2="-5.5" y2="-6">
	<stop  offset="0" style="stop-color:#656565"/>
	<stop  offset="0.618" style="stop-color:#1B1B1B"/>
	<stop  offset="0.6292" style="stop-color:#545454"/>
	<stop  offset="0.9831" style="stop-color:#3E3E3E"/>
</linearGradient>
<g>
	<path class="st0" d="M130.5,19H9.5c-3.8,0-7-3.1-7-7v0c0-3.8,3.1-7,7-7h121c3.9,0,7,3.1,7,7v0C137.5,15.9,134.4,19,130.5,19z"/>
</g>
<g>
	<path class="st0" d="M130.5,48H9.5c-3.8,0-7-3.1-7-7v0c0-3.8,3.1-7,7-7h121c3.9,0,7,3.1,7,7v0C137.5,44.9,134.4,48,130.5,48z"/>
</g>
<g>
	<path class="st0" d="M130.5,77H9.5c-3.8,0-7-3.1-7-7v0c0-3.8,3.1-7,7-7h121c3.9,0,7,3.1,7,7v0C137.5,73.9,134.4,77,130.5,77z"/>
</g>
<g>
	<path class="st0" d="M130.5,105H9.5c-3.8,0-7-3.1-7-7v0c0-3.8,3.1-7,7-7h121c3.9,0,7,3.1,7,7v0C137.5,101.9,134.4,105,130.5,105z"
		/>
</g>
</svg>
